<svg height='100px' width='100px'  fill="#DFB860" xmlns="http://www.w3.org/2000/svg" xmlns:xlink="http://www.w3.org/1999/xlink" version="1.1" x="0px" y="0px" viewBox="0 0 64 64" style="enable-background:new 0 0 64 64;" xml:space="preserve"><path d="M17,4c-0.499,0-1.001,0.067-1.5,0.2C14.018,2.795,12.048,2,10,2c-4.411,0-8,3.589-8,8c0,0.553,0.447,1,1,1h19  c0.553,0,1-0.447,1-1C23,6.691,20.309,4,17,4z M4.083,9C4.561,6.166,7.032,4,10,4c1.699,0,3.329,0.732,4.471,2.009  c0.276,0.31,0.716,0.416,1.103,0.268c2.386-0.915,4.743,0.566,5.3,2.724H4.083z"></path><rect x="17" y="13" width="2" height="2"></rect><rect x="21" y="13" width="2" height="2"></rect><rect x="25" y="13" width="2" height="2"></rect><path d="M54,31v-7v-4v-8.382l7.447-3.724C61.786,7.725,62,7.379,62,7s-0.214-0.725-0.553-0.895l-8-4  c-0.311-0.154-0.679-0.139-0.973,0.044C52.18,2.332,52,2.653,52,3v8v8h-7.54c0.954-1.063,1.54-2.462,1.54-4c0-3.309-2.691-6-6-6  s-6,2.691-6,6c0,1.796,0.797,3.406,2.051,4.506l-8.615,7.658l-5.593,2.796l-2.868-0.478C20.214,28.382,21,26.783,21,25  c0-3.309-2.691-6-6-6s-6,2.691-6,6c0,1.825,0.822,3.46,2.112,4.561c-0.014,0.028-0.034,0.05-0.045,0.079l-3.1,8.06  c-0.567,1.477-0.414,3.094,0.421,4.437c0.159,0.256,0.344,0.487,0.54,0.706L6.206,47.38l-3.913,3.913  c-0.391,0.391-0.391,1.023,0,1.414l3,3C5.488,55.902,5.744,56,6,56s0.512-0.098,0.707-0.293l5-5  c0.047-0.047,0.089-0.098,0.125-0.152l3.841-5.762L17,44.913V49h-1c-0.553,0-1,0.447-1,1v7.204L2.775,60.025  C2.321,60.13,2,60.534,2,61v1h2v-0.204l12.225-2.821C16.679,58.87,17,58.466,17,58v-7h1h5h9c0.283,0,0.554-0.12,0.743-0.331  L41.445,41H43h5h14v-2H49v-7.306c0-1.474-1.055-2.718-2.507-2.959l-3.31-0.552L43.819,25H52v6H54z M54,9.382V4.618L58.764,7  L54,9.382z M40,11c2.206,0,4,1.794,4,4s-1.794,4-4,4s-4-1.794-4-4S37.794,11,40,11z M34.59,23.48l-1.521,3.954l-2.825,2.13  l-0.93-1.395L34.59,23.48z M35.542,34.04c0.509,0.233,1.06,0.383,1.638,0.436l1.226,0.111l-3.184,4.776L31,43.586L29.414,42  l3.293-3.293c0.058-0.058,0.108-0.122,0.15-0.192L35.542,34.04z M15,21c2.206,0,4,1.794,4,4s-1.794,4-4,4s-4-1.794-4-4  S12.794,21,15,21z M10.223,49.363L6,53.586L4.414,52l3.293-3.293c0.058-0.058,0.108-0.122,0.15-0.192l2.685-4.475  c0.509,0.233,1.06,0.383,1.638,0.436l1.226,0.111L10.223,49.363z M19,49v-5c0-0.518-0.395-0.949-0.909-0.996l-5.729-0.521  c-0.945-0.086-1.774-0.597-2.276-1.403c-0.501-0.806-0.593-1.775-0.252-2.661L12.687,31h3.23l5.919,0.986  c0.209,0.034,0.423,0.002,0.611-0.092l5.21-2.605l0.916,1.374L22.734,34H18c-0.459,0-0.858,0.312-0.97,0.758l-1,4  c-0.068,0.271-0.02,0.557,0.134,0.79c0.152,0.233,0.396,0.393,0.672,0.438l4.329,0.722C21.648,40.788,22,41.203,22,41.694V49H19z   M41,39c-0.283,0-0.554,0.12-0.743,0.331L31.555,49H24v-7.306c0-1.474-1.055-2.718-2.507-2.959l-3.261-0.544L18.781,36H23  c0.174,0,0.345-0.046,0.496-0.132l7-4c0.015-0.009,0.024-0.025,0.039-0.034c0.021-0.014,0.046-0.02,0.067-0.035l2.089-1.575  c0.099,0.667,0.327,1.317,0.697,1.913c0.159,0.256,0.344,0.487,0.54,0.706l-2.722,4.537l-3.913,3.913  c-0.391,0.391-0.391,1.023,0,1.414l3,3C30.488,45.902,30.744,46,31,46s0.512-0.098,0.707-0.293l5-5  c0.047-0.047,0.089-0.098,0.125-0.152l3.841-5.762L42,34.913V39H41z M43,23c-0.477,0-0.887,0.337-0.98,0.804l-1,5  c-0.053,0.266,0.004,0.541,0.157,0.765c0.154,0.223,0.392,0.373,0.659,0.418l4.329,0.722C46.648,30.788,47,31.203,47,31.694V39h-3  v-5c0-0.518-0.395-0.949-0.909-0.996l-5.729-0.521c-0.945-0.086-1.774-0.597-2.276-1.403c-0.501-0.806-0.593-1.775-0.252-2.661  L37.687,21H52v2H43z"></path></svg>